<svg width="100" height="102" viewBox="0 0 100 102" fill="none" xmlns="http://www.w3.org/2000/svg">
  <defs>
    <linearGradient id="bgGrad" x1="0" y1="0" x2="100" y2="102" gradientUnits="userSpaceOnUse">
      <stop offset="0" stop-color="#1976D2"/>
      <stop offset="1" stop-color="#0D47A1"/>
    </linearGradient>
  </defs>
  <!-- Z letter with phone styling -->
  <g transform="translate(50,51) scale(0.8)">
    <!-- Top handset ear -->
    <path d="M-35,-48 C-35,-48 -22,-62 -10,-60 C2,-58 6,-50 6,-50 L-18,-32 C-18,-32 -28,-36 -32,-40 C-36,-44 -35,-48 -35,-48Z" fill="#1565C0"/>
    <!-- Z shape -->
    <path d="M-28,-35 L32,-35" stroke="#1565C0" stroke-width="16" stroke-linecap="round"/>
    <path d="M-28,-35 L32,35" stroke="#1565C0" stroke-width="16" stroke-linecap="round"/>
    <path d="M-32,35 L32,35" stroke="#1565C0" stroke-width="16" stroke-linecap="round"/>
    <!-- Bottom handset mouth -->
    <path d="M20,30 C20,30 33,48 30,58 C28,66 20,68 20,68 L-2,48 C-2,48 8,40 15,36 C22,32 20,30 20,30Z" fill="#1565C0"/>
  </g>
</svg>
