<?xml version="1.0" encoding="UTF-8" standalone="no"?>
<svg width="612" height="612" viewBox="0 0 612 612" fill="none" xmlns="http://www.w3.org/2000/svg">
  <defs>
    <linearGradient id="bgGrad" x1="0" y1="0" x2="512" y2="512" gradientUnits="userSpaceOnUse">
      <stop offset="0" stop-color="#1976D2"/>
      <stop offset="1" stop-color="#0D47A1"/>
    </linearGradient>
  </defs>
  <!-- 50px margin all around the 512x512 content -->
  <g transform="translate(50,50)">
    <rect width="512" height="512" rx="80" fill="url(#bgGrad)"/>
    <g transform="translate(256,256)">
      <path d="M-90,-120 C-90,-120 -60,-160 -30,-155 C0,-150 10,-130 10,-130 L-50,-80 C-50,-80 -70,-90 -80,-100 C-90,-110 -90,-120 -90,-120Z" fill="white" opacity="0.95"/>
      <path d="M-70,-90 L80,-90" stroke="white" stroke-width="42" stroke-linecap="round"/>
      <path d="M-70,-90 L80,90" stroke="white" stroke-width="42" stroke-linecap="round"/>
      <path d="M-80,90 L80,90" stroke="white" stroke-width="42" stroke-linecap="round"/>
      <path d="M50,80 C50,80 80,120 75,150 C70,170 50,175 50,175 L-10,125 C-10,125 10,105 30,95 C50,85 50,80 50,80Z" fill="white" opacity="0.95"/>
    </g>
  </g>
</svg>
