<svg width="395" height="395" viewBox="0 0 395 395" fill="none" xmlns="http://www.w3.org/2000/svg">
  <defs>
    <linearGradient id="bgGrad" x1="0" y1="0" x2="395" y2="395" gradientUnits="userSpaceOnUse">
      <stop offset="0" stop-color="#1976D2"/>
      <stop offset="1" stop-color="#0D47A1"/>
    </linearGradient>
  </defs>
  <circle cx="197.5" cy="197.5" r="197.5" fill="url(#bgGrad)"/>
  <!-- Stylized Z with phone handset motif -->
  <g transform="translate(197.5,197.5)">
    <!-- Top handset -->
    <path d="M-70,-92 C-70,-92 -46,-122 -23,-118 C0,-114 8,-100 8,-100 L-38,-62 C-38,-62 -54,-69 -61,-77 C-68,-85 -70,-92 -70,-92Z" fill="#FAFEFF" opacity="0.95"/>
    <!-- Z top bar -->
    <path d="M-54,-68 L62,-68" stroke="#FAFEFF" stroke-width="32" stroke-linecap="round"/>
    <!-- Z diagonal -->
    <path d="M-54,-68 L62,68" stroke="#FAFEFF" stroke-width="32" stroke-linecap="round"/>
    <!-- Z bottom bar -->
    <path d="M-62,68 L62,68" stroke="#FAFEFF" stroke-width="32" stroke-linecap="round"/>
    <!-- Bottom handset -->
    <path d="M38,58 C38,58 62,92 58,115 C54,130 38,135 38,135 L-8,96 C-8,96 8,81 23,73 C38,65 38,58 38,58Z" fill="#FAFEFF" opacity="0.95"/>
  </g>
</svg>
